<svg xmlns="http://www.w3.org/2000/svg" width="1025.323" height="770.242" viewBox="0 0 271.28338 203.7932"><defs><clipPath id="a"><use width="100%" height="100%" href="#SVGID_1_" overflow="visible"/></clipPath><clipPath id="b"><use width="100%" height="100%" href="#SVGID_1_-0" overflow="visible"/></clipPath></defs><g style="stroke:#fff;stroke-width:13.2283;stroke-miterlimit:0;stroke-dasharray:none;stroke-opacity:1"><path fill="#cf0a2c" d="m636.949 371.328-34.697-127.682c42.897-3.673 79.72-9.556 106.848-17.105 25.29-7.04 63.87-19.394 55.692-47.878-11.652-40.586-95.472-63.643-151.139-74.627-17.29-33.284-57.237-56.655-102.74-60.068-.206-.018-.414-.03-.619-.047l-5.651-19.997-.797-2.593c3.807-1.754 6.454-5.598 6.454-10.065 0-6.121-4.963-11.088-11.087-11.088-6.123 0-11.09 4.967-11.09 11.088 0 4.468 2.647 8.308 6.454 10.063l-.795 2.593-5.678 20.173c-.297.027-1.608.053-1.904.08-44.476 4.06-83.296 27.183-100.272 59.862-55.666 10.984-139.486 34.041-151.136 74.627-8.178 28.484 30.401 40.838 55.693 47.878 26.673 7.427 62.724 13.237 104.706 16.921L352.07 371.328Z" style="stroke:#fff;stroke-width:25.3228;stroke-linejoin:round;stroke-miterlimit:0;stroke-dasharray:none;stroke-opacity:1" transform="matrix(.26458 0 0 .26458 3.35 3.303)"/><path fill="#cf0a2c" d="M672.683 200.837c1.71 2.205 2.579 4.527 2.338 6.959-.428 4.245-4.251 8.824-12.916 13.703 20.199-3.265 41.099-8.551 44.119-17.025.462-1.298.519-2.667.076-4.115-.813-2.671-4.45-5.426-10.311-7.998a73.743 73.743 0 0 0-5.741-2.218c-13.571-4.657-34.583-8.357-58.889-9.221 13.83 4.104 29.809 9.717 38.082 16.627 1.275 1.066 2.367 2.161 3.242 3.288" style="stroke:#fff;stroke-width:13.2283;stroke-miterlimit:0;stroke-dasharray:none;stroke-opacity:1" transform="matrix(.26458 0 0 .26458 3.35 3.303)"/><path fill="#eb776e" d="M354.158 209.837a1041.153 1041.153 0 0 1-15.803-4.949c-2.29-.74-4.595-1.492-6.899-2.255-13.433-4.458-26.915-9.32-37.996-14.116-10.216-4.421-18.386-8.783-22.614-12.719-4.483 1.446-8.463 2.945-11.892 4.497a67.94 67.94 0 0 0-4.054 2.003c-5.649 3.384-7.905 9.599-2.284 15.688 10.852 9.175 32.612 15.236 41.718 17.773 20.197 5.621 46.118 10.319 76.077 13.831-13.773-5.715-18.9-12.724-16.253-19.753M749.4 185.438a11.902 11.902 0 0 0-2.709-2.726c-4.658-2.599-10.791-5.064-18.266-7.378-5.201 5.184-17.51 11.148-32.437 17.025 5.86 2.572 9.498 5.327 10.311 7.996.442 1.452.386 2.82-.076 4.117-3.021 8.475-23.92 13.761-44.119 17.028 8.665-4.884 12.488-9.461 12.916-13.707.244-2.431-.628-4.753-2.338-6.96a903.542 903.542 0 0 1-22.843 7.401c-1.905.59-3.787 1.169-5.633 1.73 2.594 7.154-2.86 14.271-17.287 20.024 31.452-3.555 58.627-8.392 79.607-14.233 8.182-2.279 26.56-7.395 38.086-15.061 7.237-5.231 7.74-11.09 4.788-15.256M642.12 206.217c10.313-3.111 19.366-5.995 27.321-8.666-8.273-6.911-24.252-12.524-38.082-16.627 24.306.864 45.317 4.563 58.889 9.219 20.406-7.776 29.442-13.064 33.446-16.199-19.758-5.552-47.487-10.159-81.152-13.536-3.306 3.463-19.085 15.631-34.971 27.618 17.802 5.172 29.558 11.591 34.549 18.191M501.328 154.096c.037.154.096.302.096.471v21.124h2.724c8.065 0 26.047.236 46.052 2.012l11.52-22.545c-19.224-.68-39.422-1.046-60.392-1.062M566.375 155.329l-11.649 22.801c4.603.459 9.28.997 13.939 1.64 9.635 1.331 17.984 2.926 25.144 4.788 2.988.656 5.857 1.34 8.598 2.054 14.978-11.283 28.852-21.923 34.543-26.747-21.426-2.024-45.113-3.558-70.575-4.536M445.483 171.629l1.045 2.045 2.308 4.517a475.712 475.712 0 0 1 15.597-1.025c11.338-.937 22.103-1.476 30.987-1.476h1.781v-21.124c0-.163.058-.313.096-.469-20.912.022-41.057.394-60.216 1.086zM703.447 159.201c-27.653-15.041-69.862-25.229-69.862-25.229l14.071 9.219c-20.379 0-48.517 3.234-48.517 3.234s66.144 4.368 104.308 12.776M374.268 175.107c-8.751-6.762-15.685-12.315-17.895-14.58-33.667 3.445-61.287 8.153-80.764 13.813 3.526 2.633 10.404 6.646 23.832 12.196 8.604 3.558 19.9 7.746 34.725 12.614a961.046 961.046 0 0 0 20.605 6.491c.503.152 1.008.306 1.515.457.101-.129.213-.262.32-.391 5.234-6.462 16.944-12.724 34.479-17.783a1796.692 1796.692 0 0 1-7.276-5.512 1594.865 1594.865 0 0 1-9.541-7.305M440.776 171.699l-8.345-16.341c-25.445.997-49.102 2.559-70.459 4.615 3.612 3.054 10.371 8.343 18.571 14.62 2.817 2.16 5.808 4.434 8.9 6.778 2.229 1.688 4.508 3.411 6.814 5.151 13.214-3.42 29.302-6.183 48.04-7.934l-2.273-4.452z" style="stroke:#fff;stroke-width:13.2283;stroke-miterlimit:0;stroke-dasharray:none;stroke-opacity:1" transform="matrix(.26458 0 0 .26458 3.35 3.303)"/><path fill="#cf0a2c" d="M669.441 197.551c-7.955 2.67-17.008 5.556-27.321 8.665-4.991-6.598-16.747-13.016-34.552-18.192 15.889-11.986 31.668-24.15 34.971-27.616-1.846-.185-3.711-.366-5.59-.545-5.691 4.825-19.565 15.466-34.546 26.749a224.424 224.424 0 0 0-8.595-2.054c-7.159-1.863-15.509-3.456-25.144-4.788a375.07 375.07 0 0 0-13.939-1.641l11.649-22.799c-1.548-.061-3.101-.118-4.659-.173l-11.52 22.545c-20.002-1.775-37.983-2.012-46.049-2.012h-2.724v-21.124c0-.166-.059-.316-.096-.471h-2.63c-.47 0-.934 0-1.401.003-.038.151-.099.302-.099.468v21.124h-1.778c-8.884 0-19.648.536-30.99 1.473-5.376.268-10.572.613-15.594 1.028l-2.307-4.519-1.047-2.046-8.403-16.445c-1.559.058-3.106.118-4.651.179l8.348 16.339 1.243 2.44 2.276 4.45c-18.736 1.748-34.827 4.514-48.038 7.931a2453.647 2453.647 0 0 1-15.717-11.926c-8.202-6.276-14.956-11.566-18.571-14.619-1.882.182-3.751.366-5.598.553 2.21 2.265 9.147 7.818 17.896 14.58a1895.962 1895.962 0 0 0 16.818 12.819c-17.535 5.06-29.246 11.321-34.479 17.783-.107.129-.218.262-.319.391-.508-.151-1.012-.305-1.515-.457a963.23 963.23 0 0 1-20.607-6.491c-14.824-4.868-26.119-9.057-34.723-12.614-13.428-5.551-20.307-9.563-23.829-12.196a174.19 174.19 0 0 0-4.769 1.457c4.232 3.936 12.402 8.299 22.614 12.719 11.085 4.796 24.563 9.658 37.997 14.114 2.308.765 4.609 1.52 6.899 2.257 5.399 1.74 10.72 3.402 15.803 4.948-2.647 7.033 2.481 14.038 16.253 19.757a934.273 934.273 0 0 0 30.706 3.06l.028-.064 2.718-5.938c-14.585-2.631-30.11-6.685-35.178-12.485-1.177-1.349-1.8-2.792-1.705-4.334.012-.179.047-.354.075-.533.187-1.089.733-2.15 1.602-3.188 4.085-4.856 15.28-9.126 29.761-12.666 1.749-.43 3.546-.847 5.388-1.254 13.317-2.943 28.783-5.316 43.849-7.025 1.504-.171 3.002-.336 4.494-.492 16.328-1.724 31.867-2.645 43.274-2.645h8.728c11.784 0 27.203.467 42.938 1.774 1.514.124 3.026.257 4.54.397 15.818 1.476 31.626 3.834 44.077 7.452 1.722.499 3.385 1.02 4.966 1.569 10.155 3.518 17.304 8.067 19.124 13.905.416 1.337.557 2.74.382 4.215-.05.467-.154.92-.301 1.365-.436 1.312-1.271 2.532-2.414 3.673-4.323 4.313-13.154 7.433-22.303 9.628l2.552 6.064.304.72c.203-.011.417-.026.61-.044a931.524 931.524 0 0 0 28.298-2.757c14.427-5.753 19.881-12.87 17.287-20.022 1.846-.563 3.728-1.138 5.633-1.731a904.6 904.6 0 0 0 22.843-7.398c-.876-1.13-1.968-2.226-3.243-3.29M690.248 190.143c2.096.72 4.018 1.46 5.741 2.218 14.927-5.877 27.235-11.841 32.437-17.025-1.521-.47-3.101-.934-4.731-1.392-4.005 3.134-13.041 8.422-33.447 16.199" style="stroke:#fff;stroke-width:13.2283;stroke-miterlimit:0;stroke-dasharray:none;stroke-opacity:1" transform="matrix(.26458 0 0 .26458 3.35 3.303)"/><path fill="#fff" d="M353.533 220.742c-16.221-5.574-23.21-11.085-22.582-16.337a6.098 6.098 0 0 1 .5-1.774c.531-1.176 1.438-2.336 2.711-3.479 6.888-6.188 24.4-11.889 49.643-16.737 1.836-.352 3.716-.7 5.635-1.042 15.211-2.729 32.922-5.159 52.579-7.234 1.493-.154 2.994-.311 4.505-.464 7.053-.713 14.329-1.383 21.828-1.999a736.535 736.535 0 0 0-22.873-.046c-1.559.021-3.125.04-4.707.07-19.295.342-40.167 1.33-60.233 2.895-2.101.163-4.195.336-6.275.512-30.161 2.562-57.884 6.445-74.825 11.432a86.862 86.862 0 0 0-5.984 1.979c-6.217 2.336-10.118 4.879-10.949 7.619-.068.212-.082.418-.124.627-3.171 15.082 46.725 21.423 71.151 23.978" clip-path="url(#a)" opacity="0.3" style="stroke:#fff;stroke-width:13.2283;stroke-miterlimit:0;stroke-dasharray:none;stroke-opacity:1" transform="matrix(.26458 0 0 .26458 3.35 3.303)"/><path fill="#cda772" d="M504.015 21.421a11.282 11.282 0 0 0 6.417-10.155c0-6.204-5.05-11.254-11.255-11.254-6.206 0-11.255 5.05-11.255 11.254 0 4.318 2.512 8.289 6.415 10.155l-6.951 22.625-.072.239.25-.021c4.283-.369 8.538-.559 12.64-.573h.087c3.367.012 6.881.146 10.448.401l.245.017z" style="stroke:#fff;stroke-width:13.2283;stroke-miterlimit:0;stroke-dasharray:none;stroke-opacity:1" transform="matrix(.26458 0 0 .26458 3.35 3.303)"/><path fill="#ab6c22" d="m504.605 23.924-.796-2.594a11.02 11.02 0 0 1-4.633 1.025 11.04 11.04 0 0 1-4.636-1.025l-.795 2.594a11.069 11.069 0 0 0 5.431 1.425c1.972 0 3.826-.521 5.429-1.425" style="stroke:#fff;stroke-width:13.2283;stroke-miterlimit:0;stroke-dasharray:none;stroke-opacity:1" transform="matrix(.26458 0 0 .26458 3.35 3.303)"/><path fill="#fff" d="M495.689 4.481c-.055-.029-.116-.038-.173-.058-1.04-.384-2.627.693-3.656 2.535-1.083 1.943-1.126 3.986-.094 4.56.613.344 1.463.08 2.282-.585.561-.457 1.108-1.103 1.549-1.892 1.083-1.944 1.126-3.987.092-4.56" style="stroke:#fff;stroke-width:13.2283;stroke-miterlimit:0;stroke-dasharray:none;stroke-opacity:1" transform="matrix(.26458 0 0 .26458 3.35 3.303)"/><path fill="#fcd789" d="M450.207 66.117c-3.626 1.59-8.48 4.055-14.631 15.662 5.882-10.384 10.203-13.399 14.631-15.662M447.001 100.231a740.395 740.395 0 0 1 47.603-1.559c1.979 0 3.938.011 5.888.025 3.579-1.949 4.484-4.739 2.084-8.095 9.768 1.319 26.5 3.856 28.436-5.03 2.257-10.35-14.693-23.653-28.877-27.807a35.765 35.765 0 0 0-2.346-.608 77.173 77.173 0 0 0-15.895.173c-.516.061-1.028.102-1.547.171-3.659.48-7.164 1.051-10.72 1.809-2.237 1.274-18.991 11.727-24.626 40.921" style="stroke:#fff;stroke-width:13.2283;stroke-miterlimit:0;stroke-dasharray:none;stroke-opacity:1" transform="matrix(.26458 0 0 .26458 3.35 3.303)"/><path fill="#f6b100" d="M531.013 85.573c-1.936 8.887-18.668 6.351-28.436 5.031 2.397 3.354 1.491 6.143-2.082 8.092 22.918.156 43.987 1.199 62.118 2.554-2.649-16.325-26.857-38.656-57.864-43.485a83.112 83.112 0 0 0-4.957-.607c.769.173 1.553.377 2.341.607 14.186 4.153 31.137 17.46 28.88 27.808M435.318 72.807c-12.103 6.769-22.479 15.377-30.297 25.388a82.295 82.295 0 0 0-4.565 6.484c3.229-.412 6.643-.821 10.206-1.225a766.28 766.28 0 0 1 16.066-1.642c.891-1.904 1.65-3.568 1.91-4.379.234.022.458.071.696.071a7.044 7.044 0 0 0 7.042-7.04c0-2.186-1.02-4.116-2.584-5.409a105.005 105.005 0 0 1 1.785-3.276c6.151-11.608 11.005-14.071 14.628-15.662 1.025-.523 2.059-1.012 3.117-1.54-6.316 2.313-12.349 5.067-18.004 8.23" style="stroke:#fff;stroke-width:13.2283;stroke-miterlimit:0;stroke-dasharray:none;stroke-opacity:1" transform="matrix(.26458 0 0 .26458 3.35 3.303)"/><path fill="#fff" d="M435.577 81.781c-.087.163-.173.316-.259.483 1.564 1.29 4.58 5.778 4.58 7.964 0 3.887-5.591 9.758-9.48 9.758-.107 0-.423.743-.767 1.562a770.498 770.498 0 0 1 17.351-1.316c5.632-29.192 22.389-39.647 24.628-40.921a134.777 134.777 0 0 0-18.304 5.267c-.914.604-1.954 1.028-3.117 1.541-4.429 2.26-8.75 5.277-14.632 15.662" style="stroke:#fff;stroke-width:13.2283;stroke-miterlimit:0;stroke-dasharray:none;stroke-opacity:1" transform="matrix(.26458 0 0 .26458 3.35 3.303)"/><path fill="#fff" d="M430.419 99.988c3.887 0 9.48-5.871 9.48-9.761 0-2.183-3.016-6.672-4.58-7.963.086-.166.169-.322.259-.483-.582 1.025-1.173 2.1-1.786 3.275 1.564 1.29 2.581 3.22 2.581 5.407 0 3.89-3.15 7.04-7.037 7.04-.239 0-.467-.047-.7-.069-.256.811-1.02 2.475-1.908 4.379.969-.089 1.937-.179 2.924-.265.341-.818.66-1.56.767-1.56M453.324 64.577c-1.061.528-2.092 1.017-3.117 1.54 1.163-.512 2.204-.935 3.117-1.54" style="stroke:#fff;stroke-width:13.2283;stroke-miterlimit:0;stroke-dasharray:none;stroke-opacity:1" transform="matrix(.26458 0 0 .26458 3.35 3.303)"/><path fill="#e393a7" d="M424.358 140.838c.536-2.003 5.206-3.364 7.04-3.521l-18.656-4.929c17.954 1.408 36.229 1.731 54.208.706 3.816-.219 27.798-2.011 23.579-9.867-3.809-7.086-30.453-14.498-108.606-5.28a703.347 703.347 0 0 0-19.943 4.411c-17.109 5.066-37.274 13.208-50.167 25.621-3.232 3.104-7.435 6.941-3.803 10.41a593.243 593.243 0 0 1 21.154-3.229c26.51-3.58 58.189-6.219 92.761-7.795 3.105-.251 6.124-.507 9.035-.763.046-.003.094-.009.143-.016h.019c6.095-.541 6.095-.541 0 0-3.782-1.13-7.501-2.993-6.764-5.748" style="stroke:#fff;stroke-width:13.2283;stroke-miterlimit:0;stroke-dasharray:none;stroke-opacity:1" transform="matrix(.26458 0 0 .26458 3.35 3.303)"/><path fill="#d54c79" d="M390.612 116.193c-.78.154-1.256.25-1.256.25l-.47.092.47-.092c.432-.087.847-.17 1.256-.25" style="stroke:#fff;stroke-width:13.2283;stroke-miterlimit:0;stroke-dasharray:none;stroke-opacity:1" transform="matrix(.26458 0 0 .26458 3.35 3.303)"/><path fill="#d54c79" d="M477.02 107.771c-34.121.763-61.35 4.11-78.713 6.908a1356.142 1356.142 0 0 0-7.694 1.514c-.409.08-.823.164-1.256.25l-.469.093c-2.369.468-4.678.936-6.967 1.411 78.155-9.218 104.801-1.806 108.606 5.28 4.22 7.856-19.758 9.648-23.579 9.867-17.978 1.025-36.253.702-54.206-.706l18.656 4.929c-1.835.156-6.504 1.518-7.04 3.521-.738 2.755 2.981 4.618 6.76 5.751a863.79 863.79 0 0 0 17.014-1.677c3.5-.382 6.818-.77 9.956-1.162a495.493 495.493 0 0 0 12.922-1.78c2.606-.401 5.047-.805 7.314-1.206a240.86 240.86 0 0 0 3.277-.602c2.1-.402 4.037-.803 5.811-1.201.89-.198 1.734-.396 2.544-.597 4.038-.99 7.081-1.961 9.205-2.889 5.52-2.417 4.813-4.542-.866-5.957 16.806-.325 35.446-1.949 46.029-4.805a43.753 43.753 0 0 0 2.678-.807c3.289-1.121 5.391-2.399 5.835-3.837.169-.555.262-1.099.239-1.64a3.387 3.387 0 0 0-.181-.938 3.802 3.802 0 0 0-.568-1.08c-.568-.753-1.49-1.484-2.9-2.185a.177.177 0 0 1-.036-.02 2.452 2.452 0 0 1-.127-.058c-1.105-.533-2.498-1.046-4.228-1.542-.281-.077-.568-.157-.867-.236-.613-.16-1.26-.322-1.955-.479a81.376 81.376 0 0 0-2.057-.435 108.938 108.938 0 0 0-4.76-.821 106.063 106.063 0 0 0-1.955-.281c-.281-.041-.585-.074-.872-.115a205.393 205.393 0 0 0-3.435-.424c-.149-.017-.31-.032-.459-.049-.621-.072-1.249-.138-1.901-.207a34.732 34.732 0 0 0-.453-.046c-.669-.066-1.345-.136-2.045-.203l-1.038-.094c-.531-.047-1.055-.096-1.606-.146-2.431-.11-4.839-.224-7.19-.319a1268.953 1268.953 0 0 0-37.423-.98M328.32 131.468c-1.731.536-16.17 4.885-25.938 9.114-12.022 4.819-21.484 9.61-28.919 14.188-4.206 2.586-7.768 5.107-10.777 7.529a77.139 77.139 0 0 0-2.834 2.386c-3.928 3.474-6.721 6.7-8.716 9.584-.188.268-.375.539-.547.801a80.23 80.23 0 0 1 7.546-3.644 114.212 114.212 0 0 1 6.552-2.521 143.468 143.468 0 0 1 6.011-1.991c.594-.185 1.201-.366 1.809-.548.957-.285 1.921-.569 2.915-.85a237.046 237.046 0 0 1 6.879-1.828s9.988-2.316 14.957-3.299c1.167-.236 2.352-.473 3.567-.703l.27-.052a346.12 346.12 0 0 1 6.918-1.245c-3.636-3.467.566-7.302 3.799-10.413 12.895-12.41 33.06-20.552 50.168-25.618-12.527 2.974-23.696 6.024-33.66 9.11" style="stroke:#fff;stroke-width:13.2283;stroke-miterlimit:0;stroke-dasharray:none;stroke-opacity:1" transform="matrix(.26458 0 0 .26458 3.35 3.303)"/><path fill="#f6b100" d="M631.874 209.299c-.186-1.091-.729-2.152-1.601-3.19-4.085-4.856-15.278-9.126-29.758-12.666-1.75-.43-3.55-.847-5.39-1.252-13.315-2.945-28.782-5.318-43.853-7.027a465.682 465.682 0 0 0-4.489-.492c-15.743-1.659-30.74-2.576-42.021-2.639l-.015-.006h-9.964l-.015.006c-11.284.063-26.277.979-42.021 2.639-1.492.156-2.99.32-4.494.492-15.066 1.709-30.532 4.082-43.85 7.027-1.841.405-3.639.822-5.387 1.252-14.478 3.54-25.676 7.81-29.761 12.666-.869 1.038-1.415 2.1-1.599 3.19-.031.179-.066.353-.077.533-.096 1.54.527 2.983 1.705 4.332 5.068 5.801 20.592 9.854 35.177 12.482l2.699-5.904.841-1.837c-2.069-4.416.429-8.227 6.19-11.417a35.946 35.946 0 0 1 2.172-1.103 53.477 53.477 0 0 1 4.574-1.867c8.444-3.016 20.228-5.294 33.716-6.827a349.91 349.91 0 0 1 4.5-.479c4.585-.451 9.34-.817 14.2-1.105.353-.021.708-.038 1.062-.058a437.73 437.73 0 0 1 23.383-.674c.655 0 1.311-.007 1.966-.003.655-.004 1.308.003 1.963.003 7.894.02 15.763.245 23.381.674.354.02.714.037 1.065.058 4.861.288 9.613.654 14.198 1.105 1.522.15 3.019.312 4.502.479 13.486 1.533 25.273 3.812 33.716 6.827a53.477 53.477 0 0 1 4.574 1.867c.765.36 1.496.726 2.175 1.103 5.758 3.19 8.256 7.001 6.188 11.417l.839 1.837 2.7 5.904c14.587-2.628 30.109-6.682 35.176-12.482 1.179-1.349 1.804-2.792 1.708-4.332-.01-.181-.044-.354-.075-.533" style="stroke:#fff;stroke-width:13.2283;stroke-miterlimit:0;stroke-dasharray:none;stroke-opacity:1" transform="matrix(.26458 0 0 .26458 3.35 3.303)"/><path fill="#cf0a2c" d="m263.611 698.051 3.924-6.397 1.902 1.165 11.765-19.187-1.902-1.164 3.92-6.397 18.054 11.067c2.262 1.384 2.966 4.394 1.567 6.678l-4.903 7.995c-1.062 1.733-2.999 2.555-4.888 2.285a4.867 4.867 0 0 1 .184 5.39l-4.903 7.995c-1.4 2.284-4.404 3.021-6.666 1.637zm19.125 2.92 3.92-6.397-6.331-3.876-3.923 6.392zm7.845-12.789 3.92-6.402-6.333-3.877-3.922 6.392zM301.921 718.502l2.349-7.128 2.117.692 11.578-19.89-2.066-.681 2.345-7.129 18.699 6.149-2.348 7.129-2.117-.697-2.754 22.798 2.065.681-2.348 7.129-8.469-2.791 1.089-7.539-8.015-2.634-3.657 6.69zm21.278-8.805 2.224-15.067-.352-.118-7.367 13.379zM344.584 726.244l1.091-5.137 8.386-.135-.939 4.405 5.813 1.232 1.328-6.234-9.909-6.988a4.827 4.827 0 0 1-1.982-4.968l1.982-9.328c.558-2.622 3.145-4.321 5.741-3.77l12.349 2.633c2.6.546 4.271 3.145 3.713 5.772l-1.094 5.137-8.383.137.937-4.406-5.813-1.237-1.095 5.143 9.91 6.982a4.813 4.813 0 0 1 1.982 4.968l-2.215 10.426c-.556 2.627-3.142 4.321-5.738 3.77l-12.353-2.628c-2.595-.552-4.266-3.152-3.711-5.774M383.599 731.117l3.123-22.286-2.207-.31 1.044-7.432 22.806 3.196-1.25 8.917-8.095-1.136.21-1.486-4.416-.618-1.04 7.433 8.357 1.169-2.725 7.197-6.673-.94-1.039 7.432 4.414.619.206-1.485 8.093 1.131-1.251 8.912-22.806-3.19 1.042-7.427zM417.948 743.084l.616-7.472 2.221.18 1.85-22.432-2.221-.181.616-7.478 21.104 1.733c2.644.219 4.632 2.588 4.409 5.261l-.768 9.345c-.167 2.031-1.528 3.635-3.334 4.242 1.683.896 2.76 2.701 2.593 4.732l-.77 9.346c-.221 2.672-2.571 4.681-5.213 4.461zm18.387-6.015.618-7.472-7.404-.607-.619 7.472zm1.234-14.949.616-7.483-7.402-.607-.616 7.483zM457.021 745.981l.245-7.494 2.227.067 5.505-22.342-2.174-.068.242-7.5 19.679.637-.242 7.5-2.228-.073 3.78 22.64 2.173.068-.242 7.5-8.914-.287-1.081-7.539-8.434-.276-1.623 7.455zm17.938-14.431-2.111-15.084-.372-.012-3.298 14.91z" style="stroke:#fff;stroke-width:21.5433;stroke-linejoin:round;stroke-miterlimit:0;stroke-dasharray:none;stroke-opacity:1" transform="matrix(.26458 0 0 .26458 3.35 3.303)"/><path fill="#cf0a2c" d="m498.726 746.988-.073-7.499 2.225-.022-.225-22.512-2.231.028-.076-7.505 12.632-.129.076 7.505-2.232.023.229 22.499 4.459-.039-.021-1.66 8.179-.09.093 9.166z" style="stroke:#fff;stroke-width:21.5433;stroke-miterlimit:0;stroke-dasharray:none;stroke-opacity:1" transform="matrix(.26458 0 0 .26458 3.35 3.303)"/><path fill="#cf0a2c" d="m536.35 746.303-.403-7.494 2.229-.124-1.21-22.467-2.226.118-.404-7.494 12.613-.669.403 7.488-2.225.118 1.207 22.478 4.45-.236-.087-1.661 8.161-.438.49 9.154z" style="stroke:#fff;stroke-width:21.5433;stroke-linejoin:round;stroke-miterlimit:0;stroke-dasharray:none;stroke-opacity:1" transform="matrix(.26458 0 0 .26458 3.35 3.303)"/><path fill="#cf0a2c" d="m599.19 736.411-3.93-27.479c-.383-2.649 1.46-5.131 4.087-5.508l13.236-1.896c2.628-.371 5.092 1.491 5.472 4.146l1.061 7.428-7.823 3.01-.953-6.679-6.62.945 3.188 22.274 6.619-.945-.956-6.684 7.823-3.01 1.593 11.135c.382 2.655-1.463 5.131-4.088 5.514l-13.236 1.891c-2.628.377-5.093-1.491-5.473-4.142M637.742 735.337l-1.595-7.331 2.178-.473-4.788-21.994-2.181.467-1.597-7.331 12.342-2.678 1.597 7.331-2.177.473 4.788 21.993 4.355-.945-.352-1.62 7.984-1.745 1.949 8.963z" style="fill:#000;stroke:#fff;stroke-width:21.5433;stroke-linejoin:round;stroke-miterlimit:0;stroke-dasharray:none;stroke-opacity:1" transform="matrix(.26458 0 0 .26458 3.35 3.303)"/><path fill="#cf0a2c" d="m676.557 721.04-8.167-23.771-2.11.726-2.438-7.095 11.947-4.107 2.439 7.101-2.11.726 7.314 21.285 6.676-2.29-7.314-21.29-2.107.726-2.438-7.101 11.947-4.096 2.437 7.089-2.107.726 8.167 23.771c.869 2.538-.473 5.323-2.985 6.184l-12.996 4.462c-2.516.858-5.284-.509-6.155-3.046M720.591 709.157l-4.22-6.206 1.849-1.255-12.662-18.617-1.843 1.249-4.22-6.206 17.515-11.899c2.197-1.491 5.229-.9 6.737 1.316l5.275 7.764a4.864 4.864 0 0 1 .07 5.391 4.887 4.887 0 0 1 4.99 2.054l5.274 7.759c1.508 2.217.945 5.261-1.252 6.752zm2.091-28.643-4.218-6.206-6.146 4.175 4.223 6.205zm8.439 12.417-4.22-6.212-6.145 4.181 4.22 6.206z" style="fill:#000;stroke:#fff;stroke-width:21.5433;stroke-miterlimit:0;stroke-dasharray:none;stroke-opacity:1" transform="matrix(.26458 0 0 .26458 3.35 3.303)"/><path fill="#cf0a2c" d="M592.462 219.073c7.325-15.66-42.448-23.735-92.326-23.608v-.003c-.113 0-.228.003-.344 0-.115.003-.23 0-.346 0v.003c-49.876-.127-99.649 7.948-92.323 23.608 0 0-158.284 354.753-158.284 373.798 0 53.957 111.009 97.696 247.946 97.696 136.94 0 254.433-43.739 254.433-97.696 0-15.349-158.756-373.798-158.756-373.798" style="stroke:#fff;stroke-width:25.3228;stroke-miterlimit:0;stroke-dasharray:none;stroke-opacity:1" transform="matrix(.26458 0 0 .26458 3.35 3.303)"/><path fill="#fff" d="M455.646 337.973v-.23c0-13.989-9.159-19.838-25.385-24.08-13.84-3.556-17.273-5.287-17.273-10.555v-.245c0-3.897 3.532-6.998 10.299-6.998 6.743 0 13.711 2.977 20.806 7.934l9.159-13.317c-8.124-6.527-18.076-10.209-29.75-10.209-16.339 0-28 9.645-28 24.21v.227c0 15.945 10.391 20.434 26.531 24.557 13.37 3.447 16.111 5.751 16.111 10.203v.232c0 4.707-4.352 7.574-11.545 7.574-9.147 0-16.693-3.791-23.898-9.743l-10.417 12.497c9.61 8.593 21.856 12.853 33.967 12.853 17.273-.002 29.395-8.948 29.395-24.91M465.422 304.481v.227c0 15.945 10.429 20.434 26.537 24.557 13.378 3.447 16.127 5.751 16.127 10.203v.232c0 4.707-4.353 7.571-11.559 7.571-9.16 0-16.685-3.789-23.892-9.74l-10.405 12.496c9.61 8.594 21.853 12.854 33.975 12.854 17.259 0 29.38-8.946 29.38-24.908v-.23c0-13.989-9.153-19.838-25.4-24.08-13.827-3.556-17.267-5.287-17.267-10.555v-.245c0-3.897 3.562-6.998 10.299-6.998 6.735 0 13.723 2.977 20.82 7.934l9.138-13.317c-8.107-6.527-18.05-10.209-29.736-10.209-16.345-.002-28.017 9.643-28.017 24.208M607.903 348.451v-33.975h-33.567v15.677h16.39v11.088c-4.585 3.261-10.251 5.254-16.39 5.254-13.34 0-24.177-11.586-24.177-24.929 0-13.359 10.837-24.176 24.177-24.176a24.1 24.1 0 0 1 17.104 7.081l12.119-12.103c-7.486-7.487-17.815-12.104-29.224-12.104-22.807 0-41.303 18.491-41.303 41.301 0 22.809 18.496 41.309 41.303 41.309 13.372.001 25.421-5.591 33.568-14.423" style="stroke:#fff;stroke-width:13.2283;stroke-miterlimit:0;stroke-dasharray:none;stroke-opacity:1" transform="matrix(.26458 0 0 .26458 3.35 3.303)"/><path fill="#cf0a2c" d="M1000 426.01c0-19.006-15.462-34.468-34.468-34.468h-77.726a34.39 34.39 0 0 0-32.926 24.29c-5.941-14.494-20.227-24.29-36.132-24.29H197.79c-26.384 0-47.845 21.465-47.845 47.853v44.972l-54.14 24.88v-81.543L72.05 391.542H0V607.68l24.422 29.111h933.931l32.022-39.723c5.952-6.2 9.624-14.606 9.624-23.855V426.01Z" style="stroke:#fff;stroke-width:25.3228;stroke-linejoin:round;stroke-miterlimit:0;stroke-dasharray:none;stroke-opacity:1" transform="matrix(.26458 0 0 .26458 3.35 3.303)"/><path fill="#fff" d="M57.41 405.631V553.34h37.899v-28.778l44.437-20.424v90.016H12.97V405.631zM380.304 594.154V458.086c0-6.308-5.209-11.642-11.757-11.642h-18.983v147.71h-44.441V405.631h93.815c4.167 0 11.662 1.019 18.362 7.928 5.932 6.115 6.871 13.256 6.871 17.301v163.295h-43.867zM686.984 479.134v41.787l-52.997-.36v32.779h66.949v40.814H589.547V405.631h111.389v41.05l-66.949-.242v33.055zM541.148 405.631h-93.813v188.523h93.813c13.938 0 25.234-11.298 25.234-25.234V430.859c.001-13.936-11.296-25.228-25.234-25.228M491.774 553.34V446.444h18.72c7.021 0 11.644 5.334 11.644 11.642v84.041c0 6.307-5.534 11.213-11.644 11.213zM843.147 430.859c0-13.937-11.298-25.234-25.234-25.234h-93.814v188.529h44.44v-46.992l14.938-8.507 15.833 8.496v47.003h43.838v-64.67l-21.957-13.863 21.957-13.869v-70.893zm-43.837 54.874-30.771 16.396V446.44h19.127c7.021 0 11.644 5.339 11.644 11.646zM985.359 482.616v-56.331c0-11.41-9.249-20.66-20.659-20.66h-77.729c-11.41 0-20.66 9.25-20.66 20.66v72.327l74.608 32.549v14.544c0 5.947-5.43 7.635-7.533 7.635h-15.58c-2.23 0-7.533-1.75-7.533-7.635v-8.423l-43.962-18.55v54.762c0 11.41 9.25 20.66 20.66 20.66H964.7c11.41 0 20.659-9.25 20.659-20.66V502.81l-74.608-32.549V453.63c.302-5.385 4.634-7.19 7.495-7.19h16.484c2.625 0 6.369.72 6.369 6.425v9.796zM196.954 405.631c-18.801 0-34.042 15.236-34.042 34.039v154.484h44.441v-35.52l30.374-16.693v52.212h44.233V405.631Zm40.773 90.77-30.374 16.396v-54.711c0-6.308 5.033-11.642 11.644-11.642h18.73z" style="stroke:#fff;stroke-width:13.2283;stroke-miterlimit:0;stroke-dasharray:none;stroke-opacity:1" transform="matrix(.26458 0 0 .26458 3.35 3.303)"/></g><path fill="#cf0a2c" d="m171.876 101.55-9.18-33.782c11.35-.972 21.092-2.529 28.27-4.526 6.691-1.863 16.899-5.131 14.735-12.668-3.083-10.738-25.26-16.839-39.989-19.745-4.574-8.806-15.144-14.99-27.183-15.893-.054-.005-.11-.008-.164-.012l-1.495-5.291-.21-.686a2.931 2.931 0 0 0-1.227-5.597 2.93 2.93 0 0 0-1.227 5.596l-.21.686-1.502 5.338c-.078.007-.425.014-.504.02-11.767 1.075-22.038 7.193-26.53 15.84-14.728 2.906-36.906 9.006-39.988 19.744-2.164 7.537 8.044 10.805 14.735 12.668 7.058 1.965 16.596 3.502 27.704 4.477L96.5 101.55Z"/><path fill="#cf0a2c" d="M181.33 56.441c.453.583.683 1.198.62 1.841-.114 1.123-1.125 2.335-3.418 3.626 5.344-.864 10.874-2.263 11.673-4.505a1.69 1.69 0 0 0 .02-1.088c-.215-.707-1.177-1.436-2.728-2.117-.456-.2-.965-.397-1.519-.586-3.59-1.233-9.15-2.212-15.58-2.44 3.658 1.086 7.886 2.57 10.075 4.4.337.281.626.57.858.869"/><path fill="#eb776e" d="M97.054 58.822a275.472 275.472 0 0 1-6.006-1.906c-3.554-1.18-7.122-2.466-10.053-3.735-2.703-1.17-4.865-2.323-5.984-3.365-1.186.383-2.239.78-3.146 1.19-.385.174-.74.352-1.073.53-1.494.895-2.091 2.54-.604 4.15 2.871 2.428 8.629 4.032 11.038 4.703 5.344 1.487 12.202 2.73 20.129 3.66-3.645-1.513-5.001-3.367-4.3-5.227M201.629 52.367a3.149 3.149 0 0 0-.717-.722c-1.232-.687-2.855-1.34-4.833-1.952-1.376 1.372-4.633 2.95-8.582 4.505 1.55.68 2.513 1.41 2.728 2.115.117.385.102.747-.02 1.09-.8 2.242-6.329 3.64-11.673 4.505 2.292-1.292 3.304-2.503 3.417-3.627.065-.643-.166-1.257-.619-1.841a239.062 239.062 0 0 1-7.534 2.416c.686 1.893-.757 3.776-4.574 5.298 8.322-.94 15.512-2.22 21.063-3.766 2.165-.603 7.027-1.957 10.077-3.985 1.915-1.384 2.048-2.934 1.267-4.036M173.244 57.864a245.9 245.9 0 0 0 7.229-2.292c-2.189-1.829-6.417-3.314-10.076-4.4 6.431.229 11.99 1.208 15.581 2.44 5.4-2.058 7.79-3.457 8.85-4.286-5.228-1.47-12.565-2.688-21.472-3.582-.875.916-5.05 4.136-9.253 7.307 4.71 1.369 7.82 3.067 9.141 4.813M135.993 44.074c.01.04.025.08.025.125v5.589h.721c2.134 0 6.892.062 12.185.532l3.048-5.965c-5.087-.18-10.43-.277-15.979-.28M153.203 44.4l-3.082 6.033c1.218.122 2.456.264 3.688.434 2.55.352 4.759.774 6.653 1.267.79.173 1.55.354 2.275.543 3.963-2.985 7.634-5.8 9.14-7.076-5.67-.536-11.937-.942-18.674-1.2M121.217 48.713l.277.541.61 1.195c1.329-.11 2.704-.2 4.127-.27 3-.249 5.848-.391 8.199-.391h.471v-5.59c0-.043.015-.082.025-.124-5.532.006-10.863.105-15.932.288zM189.47 45.425c-7.316-3.98-18.484-6.675-18.484-6.675l3.723 2.439c-5.392 0-12.837.856-12.837.856s17.5 1.155 27.598 3.38M102.375 49.633c-2.315-1.789-4.15-3.258-4.735-3.857-8.907.911-16.215 2.157-21.368 3.654.932.697 2.752 1.759 6.305 3.227 2.277.942 5.265 2.05 9.188 3.338 1.646.54 3.46 1.113 5.451 1.717l.401.121.085-.103c1.385-1.71 4.483-3.367 9.123-4.706a475.375 475.375 0 0 1-4.45-3.39M119.972 48.732l-2.208-4.324c-6.732.264-12.992.677-18.642 1.221.955.808 2.744 2.208 4.913 3.868.746.572 1.537 1.173 2.355 1.794l1.803 1.363c3.496-.905 7.753-1.636 12.71-2.1l-.6-1.178z"/><path fill="#cf0a2c" d="M180.473 55.572c-2.105.706-4.5 1.47-7.229 2.292-1.32-1.746-4.43-3.444-9.142-4.813 4.204-3.171 8.38-6.39 9.253-7.307a303.26 303.26 0 0 0-1.479-.144c-1.506 1.277-5.176 4.092-9.14 7.077a59.379 59.379 0 0 0-2.274-.543c-1.894-.493-4.104-.915-6.653-1.267a99.237 99.237 0 0 0-3.688-.434l3.082-6.032c-.41-.017-.82-.032-1.233-.046l-3.048 5.965c-5.292-.47-10.05-.532-12.183-.532h-.721v-5.59c0-.043-.016-.083-.026-.124h-1.066c-.01.04-.026.08-.026.124v5.59h-.47c-2.351 0-5.2.141-8.2.39-1.422.07-2.797.161-4.126.271l-.61-1.195-.277-.542-2.224-4.35c-.412.015-.822.03-1.23.047l2.208 4.323.33.645.602 1.178c-4.958.462-9.215 1.194-12.71 2.098-.611-.46-1.214-.916-1.804-1.362-.818-.62-1.609-1.222-2.355-1.793-2.17-1.661-3.957-3.06-4.914-3.868-.498.048-.992.096-1.48.146.584.6 2.42 2.068 4.734 3.858a470.513 470.513 0 0 0 4.45 3.391c-4.64 1.339-7.738 2.996-9.123 4.705l-.084.104c-.134-.04-.268-.08-.4-.121a254.855 254.855 0 0 1-5.453-1.718c-3.922-1.288-6.91-2.396-9.187-3.337-3.553-1.469-5.373-2.53-6.305-3.227-.437.127-.856.255-1.262.386 1.12 1.041 3.282 2.195 5.984 3.365 2.932 1.269 6.499 2.555 10.053 3.734a266.529 266.529 0 0 0 6.007 1.906c-.7 1.861.656 3.715 4.3 5.228 2.598.304 5.312.575 8.124.81l.007-.017.72-1.571c-3.86-.697-7.967-1.77-9.308-3.304-.311-.357-.476-.739-.451-1.147.003-.047.012-.093.02-.14.05-.289.194-.57.424-.844 1.08-1.285 4.043-2.415 7.874-3.351.463-.114.938-.224 1.426-.332 3.523-.779 7.615-1.407 11.601-1.859.398-.045.795-.089 1.19-.13 4.32-.456 8.43-.7 11.449-.7h2.309a141.89 141.89 0 0 1 12.562.575c4.185.39 8.368 1.014 11.662 1.971.456.132.896.27 1.314.415 2.687.931 4.578 2.135 5.06 3.68.11.353.147.724.101 1.115-.013.123-.04.243-.08.36-.115.348-.336.67-.638.973-1.144 1.14-3.48 1.966-5.901 2.547l.675 1.605.08.19a246.466 246.466 0 0 0 7.649-.741c3.817-1.522 5.26-3.405 4.574-5.298a239.342 239.342 0 0 0 7.534-2.415 5.703 5.703 0 0 0-.858-.87M185.978 53.612c.555.19 1.063.386 1.52.586 3.949-1.555 7.205-3.133 8.581-4.504-.402-.124-.82-.247-1.251-.368-1.06.829-3.45 2.228-8.85 4.286"/><path fill="#fff" d="M353.533 220.742c-16.221-5.574-23.21-11.085-22.582-16.337a6.098 6.098 0 0 1 .5-1.774c.531-1.176 1.438-2.336 2.711-3.479 6.888-6.188 24.4-11.889 49.643-16.737 1.836-.352 3.716-.7 5.635-1.042 15.211-2.729 32.922-5.159 52.579-7.234 1.493-.154 2.994-.311 4.505-.464 7.053-.713 14.329-1.383 21.828-1.999a736.535 736.535 0 0 0-22.873-.046c-1.559.021-3.125.04-4.707.07-19.295.342-40.167 1.33-60.233 2.895-2.101.163-4.195.336-6.275.512-30.161 2.562-57.884 6.445-74.825 11.432a86.862 86.862 0 0 0-5.984 1.979c-6.217 2.336-10.118 4.879-10.949 7.619-.068.212-.082.418-.124.627-3.171 15.082 46.725 21.423 71.151 23.978" clip-path="url(#b)" opacity="0.3" transform="matrix(.26458 0 0 .26458 3.35 3.303)"/><path fill="#cda772" d="M136.704 8.97a2.985 2.985 0 0 0 1.698-2.686 2.982 2.982 0 0 0-2.978-2.978 2.981 2.981 0 0 0-2.978 2.978 2.99 2.99 0 0 0 1.697 2.687l-1.839 5.986-.019.063.066-.006a40.768 40.768 0 0 1 3.345-.151h.023c.89.003 1.82.038 2.764.106l.065.004z"/><path fill="#ab6c22" d="m136.86 9.633-.21-.687a2.916 2.916 0 0 1-2.453 0l-.21.687a2.929 2.929 0 0 0 2.873 0"/><path fill="#fff" d="M134.501 4.488c-.015-.007-.03-.01-.046-.015-.275-.101-.695.184-.967.67-.287.515-.298 1.055-.025 1.207.162.091.387.022.604-.154a1.75 1.75 0 0 0 .41-.501c.286-.514.298-1.055.024-1.207"/><path fill="#fcd789" d="M122.467 20.796c-.96.421-2.243 1.073-3.87 4.144 1.555-2.747 2.699-3.545 3.87-4.144M121.619 29.822a195.896 195.896 0 0 1 14.153-.406c.947-.515 1.186-1.253.551-2.141 2.585.349 7.012 1.02 7.524-1.331.597-2.739-3.888-6.258-7.64-7.357a9.463 9.463 0 0 0-.621-.161 20.419 20.419 0 0 0-4.206.045c-.136.017-.272.027-.409.046-.968.127-1.896.278-2.836.478-.592.337-5.025 3.103-6.516 10.827"/><path fill="#f6b100" d="M143.847 25.944c-.512 2.351-4.94 1.68-7.524 1.331.635.888.395 1.626-.55 2.141 6.063.041 11.638.317 16.435.676-.7-4.32-7.106-10.228-15.31-11.505a21.99 21.99 0 0 0-1.311-.161c.203.046.41.1.619.16 3.753 1.1 8.238 4.62 7.641 7.358M118.528 22.566c-3.202 1.791-5.948 4.069-8.016 6.718a21.774 21.774 0 0 0-1.208 1.715 195.063 195.063 0 0 1 6.951-.758c.236-.504.437-.944.505-1.159.062.006.122.019.185.019a1.864 1.864 0 0 0 1.863-1.863c0-.578-.27-1.089-.684-1.431.162-.311.319-.596.472-.867 1.628-3.071 2.912-3.723 3.87-4.144.272-.138.546-.267.825-.407a33.032 33.032 0 0 0-4.763 2.177"/><path fill="#fff" d="m118.596 24.94-.068.129c.414.34 1.212 1.528 1.212 2.107 0 1.028-1.48 2.582-2.509 2.582-.028 0-.111.196-.203.413 1.464-.128 2.998-.245 4.591-.348 1.49-7.724 5.924-10.49 6.516-10.827a35.66 35.66 0 0 0-4.843 1.393c-.241.16-.516.272-.824.408-1.172.598-2.315 1.396-3.872 4.144"/><path fill="#fff" d="M117.232 29.758c1.028 0 2.508-1.553 2.508-2.583 0-.577-.798-1.765-1.212-2.106a4.5 4.5 0 0 1 .069-.128c-.154.271-.31.555-.473.866.414.342.683.852.683 1.43 0 1.03-.833 1.864-1.862 1.864-.063 0-.123-.013-.185-.019-.068.215-.27.655-.505 1.159l.774-.07c.09-.217.174-.413.203-.413M123.292 20.389c-.28.14-.554.269-.825.407.308-.135.583-.247.825-.407"/><path fill="#e393a7" d="M115.628 40.566c.142-.53 1.377-.89 1.863-.931l-4.936-1.304c4.75.372 9.585.458 14.342.186 1.01-.058 7.355-.532 6.239-2.61-1.008-1.875-8.058-3.836-28.736-1.397-1.852.382-3.61.772-5.276 1.167-4.527 1.34-9.862 3.494-13.273 6.779-.856.82-1.968 1.836-1.007 2.754 1.745-.3 3.608-.586 5.597-.854 7.014-.948 15.396-1.646 24.543-2.063a340.209 340.209 0 0 0 2.429-.206h.005c1.612-.143 1.612-.143 0 0-1.001-.299-1.985-.792-1.79-1.52"/><path fill="#d54c79" d="M106.7 34.046c-.207.04-.333.066-.333.066l-.124.024.124-.024.332-.066"/><path fill="#d54c79" d="M129.562 31.817c-9.028.202-16.233 1.088-20.827 1.828a198.078 198.078 0 0 0-2.035.4l-.333.067-.124.024c-.627.124-1.237.248-1.843.374 20.678-2.44 27.729-.478 28.735 1.397 1.117 2.078-5.227 2.552-6.238 2.61-4.757.272-9.592.186-14.342-.186l4.936 1.304c-.486.041-1.721.401-1.863.931-.195.73.789 1.222 1.789 1.522 1.613-.144 3.112-.292 4.501-.444a170.62 170.62 0 0 0 2.634-.307 131.1 131.1 0 0 0 3.42-.471 87.77 87.77 0 0 0 2.802-.479 49.955 49.955 0 0 0 1.537-.317c.236-.053.459-.105.673-.158 1.069-.262 1.874-.52 2.436-.765 1.46-.64 1.273-1.201-.23-1.576 4.447-.086 9.379-.515 12.18-1.271.254-.069.49-.14.708-.214.87-.296 1.426-.634 1.543-1.015.045-.147.07-.29.064-.434a1.006 1.006 0 0 0-.198-.534c-.15-.199-.395-.392-.768-.578a7.123 7.123 0 0 0-1.162-.429l-.229-.062a15.92 15.92 0 0 0-1.061-.242 28.823 28.823 0 0 0-1.777-.291c-.074-.011-.155-.02-.23-.03-.291-.039-.59-.076-.91-.113l-.121-.013c-.164-.019-.33-.036-.503-.055a9.19 9.19 0 0 0-.12-.012c-.177-.017-.356-.036-.541-.053l-.275-.025-.425-.039c-.643-.03-1.28-.06-1.902-.084a335.744 335.744 0 0 0-9.901-.26M90.218 38.087c-.458.142-4.278 1.293-6.863 2.412-3.18 1.275-5.684 2.542-7.651 3.753a27.583 27.583 0 0 0-2.852 1.993 20.41 20.41 0 0 0-.75.63c-1.039.92-1.778 1.774-2.306 2.537-.05.07-.099.142-.144.212a21.227 21.227 0 0 1 1.996-.965c.54-.228 1.12-.45 1.734-.667a39.977 39.977 0 0 1 1.59-.526c.157-.05.318-.097.479-.145a57.268 57.268 0 0 1 2.591-.709s2.643-.613 3.958-.873c.308-.062.622-.125.943-.186l.072-.014c.57-.109 1.17-.217 1.83-.329-.962-.917.15-1.932 1.005-2.755 3.412-3.284 8.747-5.438 13.274-6.778-3.315.787-6.27 1.594-8.906 2.41"/><path fill="#f6b100" d="M170.533 58.68c-.049-.289-.193-.57-.423-.844-1.081-1.285-4.043-2.415-7.874-3.351-.463-.114-.939-.224-1.426-.332-3.523-.779-7.615-1.407-11.603-1.859-.396-.045-.794-.089-1.187-.13-4.166-.439-8.134-.682-11.118-.698l-.004-.002H134.26l-.004.002c-2.985.016-6.952.259-11.118.698-.394.041-.79.085-1.189.13-3.986.452-8.078 1.08-11.602 1.86-.487.107-.963.217-1.425.33-3.83.937-6.793 2.067-7.874 3.352-.23.275-.375.556-.423.844-.009.047-.018.093-.02.14-.026.408.139.79.45 1.147 1.341 1.535 5.449 2.607 9.308 3.303l.714-1.562.222-.486c-.547-1.169.114-2.177 1.638-3.021.18-.1.372-.197.575-.292a14.15 14.15 0 0 1 1.21-.494c2.234-.798 5.352-1.4 8.92-1.806a92.58 92.58 0 0 1 1.191-.127 97.308 97.308 0 0 1 3.757-.292l.281-.016c2.017-.113 4.098-.173 6.187-.178.173 0 .347-.002.52 0 .174-.002.346 0 .52 0 2.088.005 4.17.065 6.186.178l.282.016a85.956 85.956 0 0 1 4.948.42c3.567.404 6.686 1.007 8.92 1.805.439.157.843.322 1.21.494a9.7 9.7 0 0 1 .576.292c1.523.844 2.184 1.852 1.637 3.02l.222.487.714 1.562c3.86-.696 7.967-1.768 9.307-3.303.312-.357.478-.739.452-1.146-.002-.048-.011-.094-.02-.141"/><path fill="#cf0a2c" d="m73.097 187.996 1.038-1.693.504.308 3.112-5.076-.503-.308 1.037-1.693 4.777 2.928c.599.367.785 1.163.415 1.767l-1.298 2.116a1.293 1.293 0 0 1-1.293.604c.292.411.33.967.049 1.426l-1.297 2.116a1.29 1.29 0 0 1-1.764.433zm5.06.772 1.037-1.692-1.675-1.026-1.038 1.691zm2.076-3.384 1.037-1.693-1.676-1.026-1.037 1.69zM83.233 193.407l.622-1.886.56.183 3.063-5.263-.546-.18.62-1.886 4.947 1.627-.62 1.886-.56-.185-.73 6.032.547.18-.621 1.887-2.241-.739.288-1.994-2.12-.697-.968 1.77zm5.63-2.33.588-3.987-.093-.03-1.949 3.54zM94.521 195.455l.289-1.36 2.219-.035-.249 1.166 1.538.326.352-1.65-2.622-1.849a1.277 1.277 0 0 1-.525-1.314l.525-2.468a1.29 1.29 0 0 1 1.519-.998l3.267.697c.688.144 1.13.832.983 1.527l-.29 1.36-2.218.035.248-1.165-1.538-.328-.29 1.361 2.622 1.848c.427.291.632.814.525 1.314l-.586 2.759a1.288 1.288 0 0 1-1.519.997l-3.268-.695a1.29 1.29 0 0 1-.982-1.528M107.811 191.147l-.275 1.967 2.211.309-.72 1.904-1.766-.249-.275 1.967 1.168.164.054-.393 2.141.299-.33 2.358-6.035-.844.276-1.965.584.08.826-5.896-.584-.082.276-1.967 6.035.846-.331 2.36-2.142-.301.056-.393zM113.932 199.91l.163-1.976.588.047.49-5.935-.588-.048.163-1.978 5.583.458c.7.058 1.226.685 1.167 1.392l-.203 2.473a1.291 1.291 0 0 1-.882 1.122c.445.237.73.715.686 1.252l-.204 2.473a1.288 1.288 0 0 1-1.38 1.18zm4.865-1.59.163-1.978-1.959-.16-.163 1.976zm.326-3.956.163-1.98-1.958-.16-.163 1.98zM124.27 200.677l.065-1.983.59.018 1.456-5.911-.575-.018.064-1.985 5.206.169-.064 1.984-.59-.02 1 5.991.576.018-.064 1.984-2.359-.076-.286-1.994-2.231-.073-.43 1.972zm4.746-3.818-.558-3.991-.099-.003-.872 3.945z"/><path fill="#cf0a2c" d="m500.878 739.467-.225-22.512-2.231.028-.076-7.505 12.632-.129.076 7.505-2.232.023.229 22.499 4.459-.039-.021-1.66 8.179-.09.093 9.166-23.035.235-.073-7.499z" style="stroke-linejoin:round" transform="matrix(.26458 0 0 .26458 3.35 3.303)"/><path fill="#cf0a2c" d="m145.742 198.747-.32-5.945-.589.031-.107-1.982 3.338-.177.106 1.98-.588.032.319 5.947 1.177-.062-.023-.44 2.16-.115.13 2.422-6.086.324-.106-1.983zM161.886 198.145l-1.04-7.27a1.287 1.287 0 0 1 1.081-1.458l3.502-.501a1.29 1.29 0 0 1 1.448 1.096l.28 1.966-2.07.796-.251-1.767-1.752.25.844 5.893 1.751-.25-.253-1.768 2.07-.796.421 2.946a1.29 1.29 0 0 1-1.081 1.459l-3.502.5a1.289 1.289 0 0 1-1.448-1.096M172.24 195.796l-1.267-5.82-.577.124-.422-1.94 3.265-.708.423 1.94-.576.125 1.267 5.819 1.152-.25-.093-.429 2.112-.461.516 2.371-5.954 1.294-.422-1.94z"/><path fill="#cf0a2c" d="m676.557 721.04-8.167-23.771-2.11.726-2.438-7.095 11.947-4.107 2.439 7.101-2.11.726 7.314 21.285 6.676-2.29-7.314-21.29-2.107.726-2.438-7.101 11.947-4.096 2.437 7.089-2.107.726 8.167 23.771c.869 2.538-.473 5.323-2.985 6.184l-12.996 4.462c-2.516.858-5.284-.509-6.155-3.046M720.591 709.157l-4.22-6.206 1.849-1.255-12.662-18.617-1.843 1.249-4.22-6.206 17.515-11.899c2.197-1.491 5.229-.9 6.737 1.316l5.275 7.764a4.864 4.864 0 0 1 .07 5.391 4.887 4.887 0 0 1 4.99 2.054l5.274 7.759c1.508 2.217.945 5.261-1.252 6.752zm2.091-28.643-4.218-6.206-6.146 4.175 4.223 6.205zm8.439 12.417-4.22-6.212-6.145 4.181 4.22 6.206z" style="stroke-linejoin:round" transform="matrix(.26458 0 0 .26458 3.35 3.303)"/><path fill="#cf0a2c" d="M160.106 61.266c1.938-4.143-11.231-6.28-24.428-6.246v-.001h-.183c-13.196-.033-26.365 2.104-24.427 6.247 0 0-41.88 93.862-41.88 98.9 0 14.277 29.372 25.85 65.603 25.85 36.232 0 67.319-11.573 67.319-25.85 0-4.06-42.004-98.9-42.004-98.9"/><path fill="#fff" d="M123.906 92.725v-.06c0-3.702-2.423-5.25-6.716-6.372-3.662-.941-4.57-1.399-4.57-2.793v-.065c0-1.03.934-1.851 2.725-1.851 1.784 0 3.627.788 5.505 2.1l2.423-3.524c-2.15-1.727-4.783-2.702-7.871-2.702-4.323 0-7.409 2.552-7.409 6.406v.06c0 4.219 2.75 5.407 7.02 6.497 3.537.912 4.263 1.522 4.263 2.7v.061c0 1.246-1.152 2.004-3.055 2.004-2.42 0-4.417-1.003-6.323-2.577l-2.756 3.306c2.542 2.274 5.783 3.4 8.987 3.4 4.57 0 7.777-2.367 7.777-6.59M126.493 83.863v.06c0 4.22 2.76 5.407 7.021 6.498 3.54.912 4.267 1.522 4.267 2.7v.06c0 1.246-1.152 2.004-3.058 2.004-2.424 0-4.415-1.002-6.322-2.577l-2.753 3.306c2.543 2.274 5.782 3.401 8.99 3.401 4.566 0 7.773-2.367 7.773-6.59v-.06c0-3.702-2.422-5.25-6.72-6.372-3.659-.941-4.569-1.399-4.569-2.793v-.065c0-1.03.942-1.851 2.725-1.851 1.782 0 3.63.788 5.509 2.1l2.417-3.524c-2.145-1.727-4.775-2.702-7.867-2.702-4.325 0-7.413 2.552-7.413 6.405M164.191 95.497v-8.989h-8.881v4.148h4.336v2.934a7.473 7.473 0 0 1-4.336 1.39c-3.53 0-6.397-3.066-6.397-6.596a6.398 6.398 0 0 1 10.922-4.523l3.207-3.202a10.897 10.897 0 0 0-7.733-3.203c-6.034 0-10.928 4.892-10.928 10.928 0 6.035 4.894 10.93 10.928 10.93 3.538 0 6.726-1.48 8.882-3.817"/><path fill="#cf0a2c" d="M267.933 116.018c0-5.029-4.09-9.12-9.12-9.12H238.25a9.1 9.1 0 0 0-8.712 6.427c-1.572-3.835-5.352-6.427-9.56-6.427H55.682c-6.98 0-12.66 5.68-12.66 12.661v11.9l-14.324 6.582v-21.575l-6.285-9.568H3.35v57.187l6.462 7.702h247.102l8.473-10.51a9.09 9.09 0 0 0 2.546-6.311v-38.948Z"/><path fill="#fff" d="M40.324 136.69v23.816H6.782v-49.88H18.54v39.081h10.027v-7.614zM103.972 160.506v-36.001c0-1.67-1.378-3.08-3.11-3.08h-5.023v39.081H84.08v-49.88h24.822c1.103 0 3.086.27 4.859 2.098 1.57 1.618 1.818 3.507 1.818 4.577v43.205h-11.607zM185.115 130.074v11.056l-14.023-.095v8.672h17.714v10.8h-29.472v-49.88h29.472v10.86l-17.714-.064v8.746zM146.529 110.626h-24.822v49.88h24.822a6.676 6.676 0 0 0 6.676-6.676V117.3a6.675 6.675 0 0 0-6.676-6.675m-13.064 39.081v-28.282h4.953c1.858 0 3.081 1.41 3.081 3.08v22.236c0 1.668-1.464 2.966-3.08 2.966zM226.433 117.301a6.676 6.676 0 0 0-6.677-6.676h-24.821v49.881h11.758v-12.433l3.952-2.251 4.19 2.248v12.436h11.598v-17.11l-5.81-3.668 5.81-3.67v-18.757zm-11.599 14.519-8.141 4.338v-14.735h5.06c1.858 0 3.081 1.413 3.081 3.082zM264.06 130.995v-14.904a5.466 5.466 0 0 0-5.466-5.466h-20.566a5.466 5.466 0 0 0-5.467 5.466v19.136l19.74 8.612v3.848c0 1.574-1.436 2.02-1.993 2.02h-4.122c-.59 0-1.993-.463-1.993-2.02v-2.228l-11.632-4.908v14.489a5.466 5.466 0 0 0 5.467 5.466h20.566a5.466 5.466 0 0 0 5.466-5.466v-18.702l-19.74-8.612v-4.4c.08-1.425 1.226-1.903 1.983-1.903h4.361c.695 0 1.685.191 1.685 1.7v2.592zM55.46 110.626a9.006 9.006 0 0 0-9.006 9.006v40.874h11.758v-9.398l8.037-4.417v13.814h11.703v-49.879Zm10.789 24.016-8.037 4.338V124.505a3.07 3.07 0 0 1 3.081-3.08h4.955z"/><path d="m163.338 202.1-11.609 1.161.992-3.998-.623-2.323-2.386-1.378v-4.902l-2.797-2.797 13.922-2.235 1.46.487-.161 1.623-2.598 2.11-.162 3.734.65 4.383zM81.949 177.35l.487 2.597 2.597 2.11.65 1.948 3.246-1.299 3.895 1.461 1.624 2.435 2.597-1.623 4.058.974 2.435 1.948 3.084-1.299 4.382 1.136 3.744 2.282 1.126-2.12 6.006.812 1.948 2.273 2.922-2.435 3.733.325 2.597 1.947 2.76-1.947h2.597l1.948 3.246-.487 3.571 3.408 2.273.812-2.598-1.299-3.246 1.435-1.48 1.162-3.714-17.53.811-13.798-1.136-10.713-1.623-10.226-3.247zM162.298 186.115l6.778-1.884 6.755-1.689 5.489-2.251 6.614-2.252 3.519-1.689 1.126 1.548-4.47 4.825.529 3.478 3.937 3.091-2.108 1.554-1.548-.563-.985-3.378-1.865-3.457-7.423.783-1.548 2.674 2.329 1.233.204 5.663-4.082-1.83s-.182-.821-1.73-2.37c.985.986 1.59-1.43 1.59-1.43l-2.013-.981-2.21-1.833-1.548.985-1.213 1.396z" style="fill:#fff;fill-opacity:1"/></svg>